<svg width="475" height="167" viewBox="0 0 475 167" fill="none" xmlns="http://www.w3.org/2000/svg">
<path d="M109.06 89.0618L149.614 1.25896H164.253L204.806 89.0618H187.057L186.634 88.3083C181.34 77.6271 176.345 66.9239 171.651 56.1986C166.957 45.4733 162.051 34.7303 156.933 23.9698C153.174 32.4037 149.42 40.776 145.67 49.0866C141.92 57.3971 138.024 65.7121 133.983 74.0315H173.69L180.532 89.0618H109.06Z" fill="#F2F2F2"/>
<path d="M228.035 1.25896L252.957 32.417L266.047 16.1439H255.062L242.739 1.25896H298.501L263.294 45.1868L298.501 89.1279H278.012L252.957 57.7717L240 74.0314H252.11L263.652 89.0618H207.612L242.819 45.1207L207.612 1.25896H228.035Z" fill="#5316FF"/>
<path d="M340.961 90.3045C333.975 90.3728 327.042 89.0982 320.538 86.5502C314.539 84.2462 309.006 80.8784 304.205 76.6092C299.701 72.565 296.04 67.673 293.432 62.2134C290.891 56.8865 289.573 51.0606 289.573 45.1604C289.573 39.2602 290.891 33.4343 293.432 28.1075C296.025 22.6194 299.687 17.7029 304.205 13.6455C308.999 9.36425 314.534 5.99112 320.538 3.69132C333.703 -1.23044 348.205 -1.23044 361.37 3.69132C367.385 5.96421 372.933 9.31522 377.742 13.5794C382.256 17.6407 385.918 22.5563 388.516 28.0414C391.056 33.3682 392.374 39.1941 392.374 45.0943C392.374 50.9945 391.056 56.8204 388.516 62.1473C385.911 67.6279 382.25 72.5421 377.742 76.6092C372.949 80.9048 367.415 84.2955 361.41 86.6163C354.894 89.1457 347.951 90.3979 340.961 90.3045ZM340.961 15.0864C336.343 15.038 331.757 15.8633 327.447 17.5188C323.489 19.0523 319.843 21.292 316.687 24.1284C313.681 26.8178 311.238 30.0752 309.5 33.7125C307.783 37.2642 306.892 41.1571 306.892 45.1009C306.892 49.0447 307.783 52.9376 309.5 56.4894C311.234 60.114 313.673 63.3583 316.673 66.0338C323.366 71.9638 332.014 75.2208 340.961 75.1815C345.579 75.2263 350.165 74.3965 354.474 72.736C358.435 71.1994 362.085 68.9601 365.248 66.1263C368.252 63.4479 370.699 60.2047 372.448 56.5819C374.184 53.0097 375.089 49.0916 375.095 45.1208C375.073 41.156 374.169 37.2456 372.448 33.6728C370.757 30.028 368.338 26.7667 365.34 24.0888C362.164 21.24 358.489 18.9995 354.501 17.4791C350.176 15.8449 345.584 15.0334 340.961 15.0864V15.0864ZM341.516 52.2592C339.333 52.324 337.202 51.5801 335.534 50.1705C334.774 49.5734 334.157 48.8131 333.731 47.9458C333.305 47.0785 333.08 46.1265 333.072 45.1604C333.076 44.1928 333.293 43.2378 333.707 42.363C334.121 41.4881 334.722 40.7147 335.468 40.0974C337.122 38.6083 339.291 37.8212 341.516 37.903C343.723 37.8144 345.874 38.6036 347.499 40.0974C348.225 40.7279 348.808 41.5054 349.21 42.3784C349.611 43.2513 349.822 44.1997 349.828 45.1604C349.825 46.1139 349.615 47.0554 349.213 47.9202C348.811 48.785 348.226 49.5527 347.499 50.1705C345.847 51.6076 343.705 52.3554 341.516 52.2592V52.2592Z" fill="#F2F2F2"/>
<path d="M470.06 74.0315V89.0618H403.604V1.25896H420.096V74.0976L470.06 74.0315Z" fill="#F2F2F2"/>
<path d="M109 111.094V99.8839H162.576V111.094H142.053V165.977H129.689V111.094H109Z" fill="#F2F2F2"/>
<path d="M197.868 166.937C192.615 166.981 187.402 166.022 182.51 164.11C177.995 162.358 173.835 159.806 170.228 156.578C166.836 153.535 164.082 149.851 162.123 145.738C160.196 141.746 159.2 137.369 159.211 132.937C159.204 128.488 160.2 124.094 162.123 120.081C164.073 115.951 166.828 112.252 170.228 109.2C173.831 105.98 177.993 103.445 182.51 101.722C192.411 98.0085 203.325 98.0085 213.227 101.722C217.77 103.441 221.96 105.976 225.59 109.2C228.982 112.257 231.732 115.955 233.682 120.081C235.605 124.094 236.601 128.488 236.594 132.937C236.605 137.369 235.609 141.746 233.682 145.738C231.724 149.847 228.974 153.531 225.59 156.578C221.956 159.811 217.768 162.363 213.227 164.11C208.334 166.022 203.121 166.981 197.868 166.937ZM197.868 110.339C194.393 110.299 190.943 110.923 187.702 112.178C184.726 113.312 181.979 114.976 179.597 117.09C177.34 119.112 175.505 121.56 174.198 124.293C172.905 126.965 172.234 129.894 172.234 132.862C172.234 135.829 172.905 138.758 174.198 141.43C175.504 144.168 177.338 146.621 179.597 148.647C183.438 151.976 188.111 154.203 193.119 155.09C198.126 155.976 203.281 155.49 208.034 153.683C211.013 152.54 213.759 150.866 216.139 148.743C218.396 146.721 220.231 144.273 221.538 141.54C222.836 138.853 223.507 135.907 223.502 132.923C223.513 129.945 222.861 127.002 221.593 124.307C220.322 121.563 218.503 119.107 216.249 117.09C213.856 114.956 211.09 113.282 208.089 112.15C204.827 110.908 201.359 110.294 197.868 110.339V110.339ZM198.294 138.302C196.647 138.344 195.043 137.777 193.788 136.71C193.216 136.26 192.752 135.687 192.431 135.034C192.11 134.381 191.94 133.665 191.934 132.937C191.941 132.209 192.106 131.492 192.417 130.834C192.727 130.176 193.176 129.592 193.733 129.123C194.984 128.008 196.618 127.418 198.294 127.476C199.959 127.408 201.583 128 202.814 129.123C203.356 129.6 203.792 130.187 204.093 130.844C204.393 131.501 204.552 132.215 204.558 132.937C204.555 133.654 204.397 134.362 204.096 135.013C203.795 135.664 203.358 136.243 202.814 136.71C201.567 137.799 199.949 138.369 198.294 138.302V138.302Z" fill="#F2F2F2"/>
<path d="M234.204 99.9799H247.653L270.224 148.853L279.016 129.822L265.278 99.8839H306.271L292.616 129.74L301.298 148.853L323.855 99.8839H337.318L306.917 165.99H295.789L285.83 144.325L275.774 165.99H264.784L234.204 99.9799ZM283.989 111.19L285.788 115.045L287.588 111.19H283.989Z" fill="#F2F2F2"/>
<path d="M344.681 165.99V99.8839H393.765C397.124 99.8403 400.463 100.412 403.615 101.572C406.404 102.61 408.978 104.149 411.212 106.113C413.293 107.985 414.967 110.264 416.13 112.809C417.3 115.361 417.895 118.138 417.875 120.945C417.876 123.012 417.485 125.061 416.721 126.982C415.937 128.923 414.883 130.743 413.589 132.388C412.233 134.106 410.648 135.63 408.877 136.916C407.028 138.27 405.038 139.42 402.942 140.346C405.479 144.435 408.057 148.487 410.676 152.503C413.286 156.509 415.869 160.571 418.411 164.646L419.152 166.018H404.852L404.536 165.551C400.936 159.971 397.388 154.415 393.889 148.881C390.391 143.346 386.842 137.78 383.242 132.182L382.391 130.961H395.524C396.8 130.811 398.031 130.395 399.137 129.74C400.311 129.059 401.396 128.234 402.365 127.284C403.279 126.388 404.049 125.356 404.646 124.224C405.182 123.223 405.469 122.108 405.484 120.973C405.53 119.619 405.269 118.272 404.719 117.034C404.169 115.796 403.346 114.699 402.31 113.824C399.88 111.892 396.826 110.916 393.724 111.08H357.072V123.319H368.942L369.258 123.785C370.178 125.418 371.153 127.023 372.17 128.588C373.187 130.152 374.203 131.757 375.192 133.39L376.044 134.611H357.072V154.684H388.861L396.06 165.99H344.681Z" fill="#F2F2F2"/>
<path d="M424.441 119.189C424.447 116.775 424.953 114.388 425.925 112.178C426.923 109.876 428.344 107.782 430.115 106.003C431.989 104.132 434.198 102.629 436.627 101.572C439.302 100.42 442.19 99.8445 445.103 99.8839H470.311V111.094H445.103C443.952 111.084 442.814 111.323 441.764 111.793C440.771 112.238 439.867 112.861 439.099 113.632C438.366 114.373 437.791 115.256 437.41 116.225C437.031 117.168 436.835 118.173 436.833 119.189C436.781 120.567 437.049 121.938 437.616 123.195C438.119 124.187 438.89 125.019 439.841 125.596C440.875 126.182 442.006 126.577 443.179 126.763C444.583 127 446.001 127.142 447.424 127.188C448.413 127.188 449.444 127.284 450.543 127.284H453.771C457.839 127.216 461.837 128.352 465.259 130.55C468.682 132.748 471.377 135.908 473.004 139.633C473.961 141.795 474.466 144.129 474.487 146.493C474.495 148.915 474.029 151.316 473.114 153.559C472.157 155.879 470.757 157.99 468.992 159.775C467.013 161.755 464.655 163.317 462.059 164.369C459.463 165.42 456.682 165.939 453.881 165.894H426.571V154.684H453.785C454.931 154.697 456.068 154.473 457.123 154.026C458.116 153.612 459.017 153.006 459.774 152.242C460.507 151.501 461.082 150.619 461.464 149.649C461.86 148.678 462.061 147.638 462.055 146.589C462.055 143.845 461.395 141.952 460.09 140.936C458.302 139.765 456.236 139.083 454.101 138.96C453.227 138.837 452.345 138.778 451.463 138.782C450.543 138.782 449.581 138.782 448.592 138.686C446.614 138.686 444.567 138.439 442.451 138.165C440.32 137.874 438.236 137.302 436.256 136.463C434.174 135.573 432.26 134.334 430.596 132.8C428.652 130.945 427.101 128.72 426.035 126.255C424.96 124.056 424.415 121.636 424.441 119.189Z" fill="#F2F2F2"/>
<g clip-path="url(#clip0_8_25)">
<path fill-rule="evenodd" clip-rule="evenodd" d="M23.2611 126.456C23.5137 126.133 23.3922 126.265 23.7442 125.98C23.9753 125.793 24.019 125.782 24.2773 125.622C24.6218 125.407 24.958 125.226 25.3429 125.003L57.4296 106.711L57.3765 146.013L23.2617 126.456H23.2611ZM11.516 106.851C12.2941 105.772 29.3477 96.3883 33.001 94.1783C35.3387 92.7644 36.6601 94.6788 41.5772 97.4152C42.8866 98.1439 44.4441 99.206 45.7795 99.7525L28.7626 109.747C26.9334 110.777 13.0134 119.014 11.5248 119.498L11.516 106.852V106.851ZM57.4132 40.4022C57.4911 45.9096 57.65 62.4122 57.3746 66.9665C55.4168 67.8497 53.4192 69.1917 51.5355 70.2444L37.1444 78.5241C33.3049 80.777 35.1329 80.4259 22.6748 73.2688C21.846 72.7929 11.7825 67.4885 11.5166 66.4364L11.4982 27.3103L0.0437263 20.6859L0.0329626 73.6098L11.5242 80.1391C13.5718 81.3077 15.3061 82.281 17.2828 83.4478C18.3794 84.0952 22.0492 85.9156 22.7331 86.8063L0.0171336 99.7759L0.081716 165.937L11.5153 159.278L11.5337 133.137C13.5149 133.725 66.6371 165.087 68.9994 165.903L69 100.351C68.6917 99.5931 68.7056 99.7198 67.8743 99.2085L46.2018 86.8895C46.2556 86.829 46.3291 86.7546 46.3709 86.7155L69 73.5998L68.9836 7.3678C66.4218 6.37373 59.6166 1.6404 57.4315 0.938187L57.3587 27.0815C55.2199 26.1379 52.3162 24.3155 50.1445 23.0296L14.3449 2.43465C13.1673 1.76395 11.9845 0.636247 10.691 1.28362L0.000671387 7.50333L57.4132 40.4028V40.4022Z" fill="#5316FF"/>
</g>
<defs>
<clipPath id="clip0_8_25">
<rect width="69" height="165" fill="white" transform="translate(0 0.937012)"/>
</clipPath>
</defs>
</svg>
