<svg width="40" height="40" viewBox="0 0 40 40" fill="none" xmlns="http://www.w3.org/2000/svg">
<path d="M34.3112 9.8244C29.6548 6.3404 25.194 6.438 25.194 6.438L24.738 6.9588C30.2736 8.6196 32.846 11.0616 32.846 11.0616C24.9264 6.7012 14.8384 6.7324 6.6008 11.0616C6.6008 11.0616 9.2708 8.4892 15.132 6.8284L14.8064 6.4376C14.8064 6.4376 10.378 6.34 5.6892 9.824C5.6892 9.824 1.0004 18.2576 1.0004 28.6448C1.0004 28.6448 3.7356 33.3336 10.932 33.5616C10.932 33.5616 12.1368 32.1288 13.1136 30.8916C8.978 29.6544 7.4152 27.082 7.4152 27.082C10.0132 28.7076 12.6404 29.7252 15.914 30.3708C21.2404 31.4672 27.8656 30.34 32.8136 27.082C32.8136 27.082 31.1856 29.7196 26.92 30.9244C27.8968 32.1292 29.0692 33.5292 29.0692 33.5292C36.2648 33.3016 39 28.6128 39 28.6452C39 18.258 34.3112 9.8244 34.3112 9.8244ZM13.9272 25.6172C12.1036 25.6172 10.606 24.0216 10.606 22.0352C10.7392 17.2784 17.1488 17.2932 17.2488 22.0352C17.2484 24.0216 15.7832 25.6172 13.9272 25.6172ZM25.8124 25.6172C23.9888 25.6172 22.4912 24.0216 22.4912 22.0352C22.6376 17.2876 28.9672 17.2856 29.134 22.0352C29.1336 24.0216 27.6684 25.6172 25.8124 25.6172Z" fill="#656565"/>
</svg>
