<svg width="40" height="40" viewBox="0 0 40 40" fill="none" xmlns="http://www.w3.org/2000/svg">
<path d="M36.6667 9.66667C35.4139 10.2102 34.089 10.5694 32.7333 10.7333C34.1636 9.87887 35.2355 8.53464 35.75 6.95C34.4059 7.7501 32.9346 8.31383 31.4 8.61667C30.3742 7.50428 29.0083 6.76383 27.5163 6.51142C26.0244 6.25901 24.4909 6.50893 23.1563 7.22198C21.8217 7.93503 20.7616 9.07088 20.1421 10.4514C19.5226 11.8319 19.3788 13.379 19.7333 14.85C17.0157 14.7125 14.3574 14.0049 11.9311 12.7731C9.50478 11.5413 7.36474 9.81282 5.65 7.7C5.04856 8.75028 4.73253 9.9397 4.73333 11.15C4.7312 12.274 5.00702 13.381 5.53625 14.3726C6.06548 15.3642 6.83169 16.2095 7.76666 16.8333C6.67996 16.8038 5.61647 16.5122 4.66666 15.9833V16.0667C4.67481 17.6415 5.22665 19.1652 6.22885 20.3799C7.23105 21.5947 8.62209 22.4261 10.1667 22.7333C9.57209 22.9143 8.95479 23.0097 8.33333 23.0167C7.90315 23.0116 7.47403 22.9726 7.05 22.9C7.48984 24.2547 8.34103 25.4386 9.48512 26.2869C10.6292 27.1353 12.0093 27.6059 13.4333 27.6333C11.0287 29.5254 8.0598 30.5581 4.99999 30.5667C4.44289 30.5685 3.88622 30.5351 3.33333 30.4667C6.45738 32.4838 10.098 33.5545 13.8167 33.55C16.3828 33.5766 18.9286 33.0917 21.3052 32.1235C23.6818 31.1552 25.8417 29.7231 27.6587 27.9108C29.4756 26.0985 30.9133 23.9423 31.8876 21.5682C32.8619 19.194 33.3534 16.6495 33.3333 14.0833C33.3333 13.8 33.3333 13.5 33.3333 13.2C34.6412 12.2247 35.7691 11.029 36.6667 9.66667V9.66667Z" fill="white"/>
</svg>
